# xmcd CD database file
#
# Track frame offsets:
#	150
#	13935
#	27299
#	49388
#	63598
#	76362
#	90877
#	101158
#	116278
#	123672
#	140922
#	151595
#	165625
#	178412
#	191744
#
# Disc length: 2749 seconds
#
# Revision: 0
# Processed by: cddbd v1.4PL0 Copyright (c) Steve Scherf et al.
# Submitted via: Feurio! 1.66 - http://www.feurio.com
#
DISCID=ce0abb0f
DTITLE=Various Artist - X-MIX URBAN SERIES MOST WANTED 4
DYEAR=1900
DGENRE=
TTITLE0=Mr. Vegas - Heads High
TTITLE1=Mr. Vegas - Heads High
TTITLE2=702 - Where My Girls At?
TTITLE3=Ruff Ryders ft Eve and Nokio - What Ya Want
TTITLE4=Ruff Ryders ft Eve and Nokio - What Ya Want
TTITLE5=Next - Too Close
TTITLE6=Next - Too Close
TTITLE7=Lauryn Hill - Doo Wop (That Thing)
TTITLE8=Lauryn Hill - Doo Wop (That Thing)
TTITLE9=112 - Only You
TTITLE10=112 - Only You
TTITLE11=One Way - Cutie Pie
TTITLE12=One Way - Cutie Pie
TTITLE13=K.P. and Envyi - Swing My Way
TTITLE14=K.P. and Envyi - Swing My Way
EXTD=
EXTT0=
EXTT1=
EXTT2=
EXTT3=
EXTT4=
EXTT5=
EXTT6=
EXTT7=
EXTT8=
EXTT9=
EXTT10=
EXTT11=
EXTT12=
EXTT13=
EXTT14=
PLAYORDER=
